<?xml version="1.0" encoding="utf-8"?>
<!-- Generator: Adobe Illustrator 24.1.3, SVG Export Plug-In . SVG Version: 6.00 Build 0)  -->
<svg version="1.1" width="120" height="90" id="Layer_1" xmlns="http://www.w3.org/2000/svg" xmlns:xlink="http://www.w3.org/1999/xlink" x="0px" y="0px"
	 viewBox="0 0 93.8 33" style="enable-background:new 0 0 93.8 33;" xml:space="preserve">
<style type="text/css">
	.st0{fill:#000000;}
	.st1{fill:url(#SVGID_1_);}
</style>
<g>
	<g>
		<g>
			<path class="st0" d="M21.3,30.5h4.8c1.3,0,2.3-1.3,2.3-2.8v-4.4V21v-5.6l2.8,2.5c0.2,0.1,0.4,0.2,0.6,0.2c0.3,0,0.5-0.1,0.7-0.3
				c0.3-0.4,0.3-0.9-0.1-1.3L17.1,2.9c0,0,0,0-0.1-0.1c-0.3-0.3-0.9-0.3-1.2,0L0.5,16.5c-0.4,0.3-0.4,0.9-0.1,1.3
				C0.6,17.9,0.9,18,1.1,18c0.2,0,0.4-0.1,0.6-0.2l2.8-2.5v0.5v7.1v5.3c0,1.3,1,2.3,2.3,2.3c0,0,0,0,0.1,0s0,0,0.1,0h4.7H21.3z
				 M6.8,28.7C6.8,28.7,6.8,28.7,6.8,28.7c-0.1,0-0.1,0-0.1,0c-0.3,0-0.5-0.2-0.5-0.5v-5.3v-7.1v-2.1l10.1-9l10.2,9.1V21l0,0v2.3
				v4.4c0,0.6-0.3,1-0.5,1L6.8,28.7z"/>
		</g>
	</g>
	<g>
		
			<linearGradient id="SVGID_1_" gradientUnits="userSpaceOnUse" x1="18.9741" y1="13.1242" x2="11.3629" y2="20.7354" gradientTransform="matrix(1 0 0 -1 0 34)">
			<stop  offset="0" style="stop-color:#0270D7"/>
			<stop  offset="1" style="stop-color:#71AFE9"/>
		</linearGradient>
		<path class="st1" d="M14.1,25.6c0,0-0.1,0-0.1,0c-0.1,0-0.2-0.2-0.1-0.3l1.1-6.6h-3.1c-0.1,0-0.1,0-0.2-0.1s-0.1-0.1-0.1-0.2
			l1.5-6.9c0-0.1,0.1-0.2,0.2-0.2h5.7c0.1,0,0.1,0,0.2,0.1c0,0.1,0.1,0.1,0,0.2l-1.1,4.3H21c0.1,0,0.2,0.1,0.2,0.1
			c0,0.1,0,0.2,0,0.3l-6.9,9.2C14.3,25.6,14.2,25.6,14.1,25.6z"/>
		<path class="st0" d="M19.1,11.6L19.1,11.6 M19.1,11.6l-1.1,4.6H21l-6.9,9.2l1.1-6.9h-3.4l1.5-6.9L19.1,11.6 M21,16.2L21,16.2
			 M19.1,11.1L19.1,11.1h-5.7c-0.2,0-0.4,0.2-0.5,0.4l-1.5,6.9c0,0.1,0,0.3,0.1,0.4c0.1,0.1,0.2,0.2,0.4,0.2h2.9l-1.1,6.3
			c0,0.2,0.1,0.5,0.3,0.5c0.1,0,0.1,0,0.2,0c0.1,0,0.3-0.1,0.4-0.2l6.9-9.1c0.1-0.1,0.1-0.2,0.1-0.3c0-0.3-0.2-0.5-0.5-0.5h0h-2.4
			l1-3.9c0-0.1,0-0.1,0-0.2C19.6,11.4,19.4,11.1,19.1,11.1L19.1,11.1z M19.1,12.1L19.1,12.1L19.1,12.1L19.1,12.1z"/>
	</g>
</g>
<g>
	<path class="st0" d="M39.2,14.3c-0.3,0-0.6-0.1-0.7-0.2s-0.2-0.3-0.2-0.6v-0.2c0-0.2,0.1-0.4,0.2-0.6s0.4-0.2,0.7-0.2
		c0.3,0,0.5,0.1,0.7,0.2c0.1,0.1,0.2,0.3,0.2,0.6v0.2c0,0.2-0.1,0.4-0.2,0.6C39.7,14.2,39.5,14.3,39.2,14.3z M38.4,15.2h1.5v6.3
		h-1.5V15.2z"/>
	<path class="st0" d="M45.1,14.5v7h-1.6v-7h-2.4v-1.4h6.3v1.4H45.1z"/>
	<path class="st0" d="M50.4,21.6c-0.5,0-0.9-0.1-1.2-0.2s-0.7-0.4-0.9-0.7s-0.4-0.6-0.6-1c-0.1-0.4-0.2-0.9-0.2-1.4
		c0-0.5,0.1-0.9,0.2-1.3c0.1-0.4,0.3-0.7,0.6-1c0.2-0.3,0.6-0.5,0.9-0.7c0.4-0.2,0.8-0.2,1.2-0.2c0.5,0,0.9,0.1,1.3,0.3
		c0.4,0.2,0.7,0.4,0.9,0.7c0.2,0.3,0.4,0.6,0.5,1s0.2,0.8,0.2,1.2v0.5h-4.2v0.2c0,0.5,0.1,0.8,0.4,1.1c0.3,0.3,0.6,0.4,1.1,0.4
		c0.4,0,0.7-0.1,0.9-0.2c0.2-0.2,0.5-0.4,0.7-0.6l0.8,0.9c-0.3,0.4-0.6,0.6-1,0.8C51.5,21.5,51,21.6,50.4,21.6z M50.4,16.2
		c-0.4,0-0.7,0.1-1,0.4c-0.2,0.3-0.4,0.6-0.4,1.1v0.1h2.6v-0.1c0-0.4-0.1-0.8-0.3-1C51.1,16.3,50.8,16.2,50.4,16.2z"/>
	<path class="st0" d="M56.1,21.5c-0.5,0-0.9-0.1-1.2-0.4c-0.2-0.3-0.4-0.6-0.4-1.1v-7.4h1.5v7.6H57v1.2H56.1z"/>
	<path class="st0" d="M59.6,21.5c-0.5,0-0.9-0.1-1.2-0.4c-0.2-0.3-0.4-0.6-0.4-1.1v-7.4h1.5v7.6h0.8v1.2H59.6z"/>
	<path class="st0" d="M62.3,14.3c-0.3,0-0.6-0.1-0.7-0.2s-0.2-0.3-0.2-0.6v-0.2c0-0.2,0.1-0.4,0.2-0.6s0.4-0.2,0.7-0.2
		c0.3,0,0.5,0.1,0.7,0.2c0.1,0.1,0.2,0.3,0.2,0.6v0.2c0,0.2-0.1,0.4-0.2,0.6C62.9,14.2,62.7,14.3,62.3,14.3z M61.6,15.2h1.5v6.3
		h-1.5V15.2z"/>
	<path class="st0" d="M70.5,22c0,0.3-0.1,0.6-0.2,0.9c-0.1,0.3-0.3,0.5-0.6,0.6s-0.6,0.3-1,0.4C68.4,24,67.8,24,67.2,24
		c-0.5,0-1,0-1.3-0.1c-0.4-0.1-0.7-0.2-0.9-0.3s-0.4-0.3-0.5-0.5c-0.1-0.2-0.2-0.4-0.2-0.6c0-0.4,0.1-0.6,0.3-0.8s0.5-0.3,0.8-0.4
		v-0.1c-0.3-0.1-0.5-0.2-0.6-0.4c-0.1-0.2-0.2-0.4-0.2-0.7c0-0.2,0-0.3,0.1-0.4c0.1-0.1,0.1-0.2,0.3-0.3c0.1-0.1,0.2-0.2,0.4-0.2
		c0.1-0.1,0.3-0.1,0.4-0.1v0c-0.4-0.2-0.7-0.4-0.9-0.7c-0.2-0.3-0.3-0.7-0.3-1.1c0-0.6,0.2-1.2,0.7-1.5c0.4-0.4,1.1-0.6,1.9-0.6
		c0.2,0,0.4,0,0.6,0c0.2,0,0.4,0.1,0.5,0.1V15c0-0.6,0.3-0.9,0.9-0.9h1v1.2h-1.3v0.2c0.3,0.2,0.6,0.4,0.7,0.7c0.2,0.3,0.2,0.6,0.2,1
		c0,0.6-0.2,1.1-0.7,1.5c-0.4,0.4-1.1,0.6-1.9,0.6c-0.4,0-0.7,0-1-0.1c-0.1,0.1-0.2,0.1-0.3,0.2c-0.1,0.1-0.1,0.2-0.1,0.3
		c0,0.3,0.3,0.5,0.8,0.5h1.7c0.8,0,1.3,0.2,1.7,0.5C70.4,21,70.5,21.4,70.5,22z M69.1,22.2c0-0.2-0.1-0.4-0.2-0.5
		c-0.2-0.1-0.4-0.2-0.8-0.2h-2.1c-0.2,0.2-0.3,0.4-0.3,0.6c0,0.2,0.1,0.4,0.3,0.6c0.2,0.1,0.5,0.2,1,0.2h0.8c0.5,0,0.9-0.1,1.1-0.2
		C69,22.6,69.1,22.4,69.1,22.2z M67.2,18.2c0.8,0,1.1-0.3,1.1-1v-0.2c0-0.6-0.4-1-1.1-1s-1.1,0.3-1.1,1v0.2
		C66.1,17.9,66.5,18.2,67.2,18.2z"/>
	<path class="st0" d="M73.9,21.6c-0.5,0-0.9-0.1-1.2-0.2S72,21,71.7,20.7s-0.4-0.6-0.6-1c-0.1-0.4-0.2-0.9-0.2-1.4
		c0-0.5,0.1-0.9,0.2-1.3c0.1-0.4,0.3-0.7,0.6-1c0.2-0.3,0.6-0.5,0.9-0.7c0.4-0.2,0.8-0.2,1.2-0.2c0.5,0,0.9,0.1,1.3,0.3
		c0.4,0.2,0.7,0.4,0.9,0.7c0.2,0.3,0.4,0.6,0.5,1s0.2,0.8,0.2,1.2v0.5h-4.2v0.2c0,0.5,0.1,0.8,0.4,1.1c0.3,0.3,0.6,0.4,1.1,0.4
		c0.4,0,0.7-0.1,0.9-0.2c0.2-0.2,0.5-0.4,0.7-0.6l0.8,0.9c-0.3,0.4-0.6,0.6-1,0.8C75,21.5,74.5,21.6,73.9,21.6z M73.9,16.2
		c-0.4,0-0.7,0.1-1,0.4c-0.2,0.3-0.4,0.6-0.4,1.1v0.1h2.6v-0.1c0-0.4-0.1-0.8-0.3-1C74.6,16.3,74.3,16.2,73.9,16.2z"/>
	<path class="st0" d="M78,21.5v-6.3h1.5v1h0.1c0.1-0.3,0.3-0.6,0.6-0.8c0.3-0.2,0.7-0.3,1.1-0.3c0.6,0,1.1,0.2,1.5,0.6
		c0.3,0.4,0.5,1,0.5,1.8v4h-1.5v-3.8c0-0.4-0.1-0.8-0.2-1s-0.4-0.3-0.8-0.3c-0.2,0-0.3,0-0.5,0.1s-0.3,0.1-0.4,0.2
		c-0.1,0.1-0.2,0.2-0.3,0.3c-0.1,0.1-0.1,0.3-0.1,0.4v4.1H78z"/>
	<path class="st0" d="M87.1,21.5c-0.5,0-0.9-0.1-1.2-0.4c-0.3-0.3-0.4-0.7-0.4-1.2v-3.4h-0.9v-1.2H85c0.2,0,0.4-0.1,0.5-0.2
		c0.1-0.1,0.1-0.3,0.1-0.5v-1.1H87v1.7h1.3v1.2H87v3.8h1.2v1.2H87.1z"/>
</g>
</svg>
