<?xml version="1.0" encoding="utf-8"?>
<!-- Generator: Adobe Illustrator 24.1.3, SVG Export Plug-In . SVG Version: 6.00 Build 0)  -->
<svg version="1.1" id="Layer_1" xmlns="http://www.w3.org/2000/svg" xmlns:xlink="http://www.w3.org/1999/xlink" x="0px" y="0px"
	 viewBox="0 0 33 33" style="enable-background:new 0 0 33 33;" xml:space="preserve">
<style type="text/css">
	.st0{fill:none;stroke:#000000;stroke-width:2;stroke-linejoin:round;stroke-miterlimit:10;}
	.st1{fill:#1D2026;}
	.st2{fill:#FFFFFF;}
	.st3{fill:url(#SVGID_1_);}
</style>
<g>
	<g>
		<g>
			<path class="st2" d="M21.29,30.5h4.81c1.27,0,2.27-1.25,2.27-2.84v-4.41v-2.27v-5.56l2.75,2.46c0.17,0.15,0.39,0.23,0.6,0.23
				c0.25,0,0.49-0.1,0.67-0.3c0.32-0.37,0.29-0.94-0.08-1.27L17.06,2.9c-0.03-0.03-0.05-0.05-0.09-0.07
				c-0.33-0.32-0.87-0.33-1.22-0.02L0.51,16.45c-0.37,0.33-0.4,0.9-0.07,1.27c0.18,0.2,0.43,0.3,0.67,0.3c0.21,0,0.43-0.07,0.6-0.23
				l2.75-2.46v0.48v7.12v5.3c0,1.25,1.01,2.27,2.27,2.27c0.02,0,0.03,0,0.05,0s0.03,0,0.05,0h4.71H21.29z M6.82,28.7
				c-0.02,0-0.03,0-0.05,0s-0.03,0-0.05,0c-0.25,0-0.47-0.21-0.47-0.47v-5.31v-7.12v-2.09l10.12-9.04l10.2,9.12l0,7.17l0,0v2.27v4.4
				c0,0.65-0.32,1.04-0.47,1.04L6.82,28.7z"/>
		</g>
	</g>
	<g>
		<linearGradient id="SVGID_1_" gradientUnits="userSpaceOnUse" x1="18.9804" y1="20.8736" x2="11.3681" y2="13.2613">
			<stop  offset="0" style="stop-color:#0270D7"/>
			<stop  offset="1" style="stop-color:#71AFE9"/>
		</linearGradient>
		<path class="st3" d="M14.12,25.63c-0.03,0-0.07-0.01-0.1-0.02c-0.11-0.05-0.17-0.16-0.15-0.27l1.1-6.59h-3.14
			c-0.08,0-0.15-0.03-0.2-0.09c-0.05-0.06-0.07-0.14-0.05-0.21l1.53-6.88c0.03-0.11,0.13-0.2,0.24-0.2h5.73
			c0.08,0,0.15,0.04,0.2,0.1c0.05,0.06,0.06,0.14,0.04,0.21l-1.07,4.27H21c0.09,0,0.18,0.05,0.22,0.14s0.03,0.19-0.02,0.26
			l-6.88,9.17C14.28,25.59,14.2,25.63,14.12,25.63z"/>
		<path class="st2" d="M19.09,11.62L19.09,11.62 M19.09,11.62l-1.15,4.58H21l-6.88,9.17l1.15-6.88h-3.44l1.53-6.88H19.09 M21,16.21
			L21,16.21 M19.09,11.12L19.09,11.12h-5.74c-0.23,0-0.44,0.16-0.49,0.39l-1.53,6.88c-0.03,0.15,0,0.3,0.1,0.42
			c0.09,0.12,0.24,0.19,0.39,0.19h2.85l-1.05,6.29c-0.04,0.23,0.08,0.45,0.3,0.54c0.06,0.03,0.13,0.04,0.2,0.04
			c0.15,0,0.3-0.07,0.4-0.2l6.86-9.14c0.08-0.09,0.12-0.2,0.12-0.33c0-0.28-0.22-0.5-0.5-0.5H21h-2.42l0.98-3.92
			c0.02-0.05,0.03-0.11,0.03-0.17C19.59,11.35,19.37,11.12,19.09,11.12L19.09,11.12z M19.09,12.12L19.09,12.12L19.09,12.12
			L19.09,12.12z"/>
	</g>
</g>
</svg>
