<?xml version="1.0" encoding="iso-8859-1"?>
<!-- Generator: Adobe Illustrator 19.0.0, SVG Export Plug-In . SVG Version: 6.00 Build 0)  -->
<svg version="1.1" width="112" height="100" id="Layer_1" xmlns="http://www.w3.org/2000/svg" xmlns:xlink="http://www.w3.org/1999/xlink" x="0px" y="0px"
	 viewBox="0 0 512 512" style="enable-background:new 0 0 512 512;" xml:space="preserve">
<g>
	<g>
		<polygon style="fill:#ffff;" points="359.019,141.964 333.736,163.777 392.041,231.358 392.041,478.609 119.959,478.609 119.959,231.358 
			178.264,163.777 152.981,141.964 51.96,259.061 77.242,280.872 86.568,270.062 86.568,512 425.432,512 425.432,270.062 
			434.758,280.872 460.04,259.061 		"/>
	</g>
</g>
<g>
	<g>
		<path style="fill:#ffff" d="M359.775,292.489v-33.391h-21.341v-19.846h-19.846v-0.001v-21.341h-33.391v21.341h-12.501v-21.341h-33.391v21.341h-12.501
			v-21.341h-33.391v21.341h-19.846v19.846h-21.341v33.391h21.341v14.64h-21.341v33.391h21.341v10.362h-21.341v33.391h21.341v19.846
			h19.846v21.341h33.391v-21.341h12.501v21.341h33.391v-21.341h12.501v21.341h33.391v-21.341h19.846v-19.846h21.341v-33.391h-21.341
			v-12.501h21.341V304.99h-21.341v-12.501H359.775z M305.043,370.726h-98.085v-98.084h98.085V370.726z"/>
	</g>
</g>
<g>
	<g>
		<path style="fill:#E5E5E5;" d="M256.001,126.945c-21.294,0-41.314,8.292-56.371,23.351l23.611,23.611c8.751-8.751,20.385-13.57,32.761-13.57
			c12.376,0,24.007,4.82,32.759,13.57l23.611-23.611C297.315,135.237,277.295,126.945,256.001,126.945z"/>
	</g>
</g>
<g>
	<g>
		<path style="fill:#E5E5E5;" d="M256,0c-55.203,0-107.102,21.497-146.136,60.531l23.611,23.611c32.728-32.727,76.241-50.75,122.525-50.75
			s89.797,18.024,122.525,50.751l23.611-23.611C363.102,21.497,311.203,0,256,0z"/>
	</g>
</g>
<g>
	<g>
		<path  style="fill:#E5E5E5;" d="M256,63.472c-38.247,0-74.208,14.895-101.255,41.941l23.611,23.612c20.74-20.739,48.314-32.161,77.644-32.161
			c29.33,0,56.903,11.422,77.644,32.161l23.611-23.612C330.208,78.367,294.247,63.472,256,63.472z"/>
	</g>
</g>
<g>
</g>
<g>
</g>
<g>
</g>
<g>
</g>
<g>
</g>
<g>
</g>
<g>
</g>
<g>
</g>
<g>
</g>
<g>
</g>
<g>
</g>
<g>
</g>
<g>
</g>
<g>
</g>
<g>
</g>
</svg>
