<?xml version="1.0" encoding="UTF-8" standalone="no"?>
<!-- Created with Inkscape (http://www.inkscape.org/) -->

<svg
   width="210mm"
   height="297mm"
   viewBox="0 0 210 297"
   version="1.1"
   id="svg5"
   xmlns="http://www.w3.org/2000/svg"
   xmlns:svg="http://www.w3.org/2000/svg">
  <defs
     id="defs2" />
  <g
     id="layer1">
    <g
       id="g1454">
      <g
         style="fill:#12ccff;stroke:#ffffff;stroke-opacity:1;fill-opacity:1"
         id="g169"
         transform="matrix(1.9656387,0,0,1.9656387,79.494947,65.291489)">
        <path
           d="m -23.960837,14.175809 1.876373,-8.4436777 h 7.036398 l -1.40728,5.6290337 h 3.752745 l -8.443677,11.258321 1.40728,-8.443677 z"
           stroke="#000000"
           stroke-width="1.87637"
           stroke-linecap="round"
           stroke-linejoin="round"
           id="path160"
           style="stroke:#ffffff;stroke-opacity:1;fill:#12ccff;fill-opacity:1;stroke-width:1.87636991;stroke-miterlimit:4;stroke-dasharray:none" />
      </g>
      <g
         id="g706"
         transform="matrix(0.26458333,0,0,0.26458333,9.8351652,53.636776)"
         style="fill:#ffffff;fill-opacity:1">
        <g
           id="g1381"
           style="fill:#ffffff;fill-opacity:1">
          <path
             d="m 50.026,221.666 v -77.064 c 0,-4.142 -3.357,-7.5 -7.5,-7.5 -4.143,0 -7.5,3.358 -7.5,7.5 v 84.564 c 0,4.142 3.357,7.5 7.5,7.5 h 56.377 56.379 56.373 c 4.143,0 7.5,-3.358 7.5,-7.5 v -84.564 c 0,-4.142 -3.358,-7.5 -7.5,-7.5 -4.143,0 -7.5,3.358 -7.5,7.5 v 77.064"
             id="path647"
             style="fill:#ffffff;fill-opacity:1" />
          <path
             d="M 251.985,139.298 132.389,19.712 c -2.928,-2.929 -7.677,-2.928 -10.607,0 L 2.197,139.298 c -2.929,2.929 -2.929,7.678 0,10.606 2.93,2.929 7.678,2.929 10.607,0 L 127.086,35.622 241.379,149.905 c 1.464,1.464 3.384,2.196 5.303,2.196 1.919,0 3.839,-0.732 5.304,-2.197 2.928,-2.928 2.928,-7.677 -10e-4,-10.606 z"
             id="path649"
             style="fill:#ffffff;fill-opacity:1" />
        </g>
        <g
           id="g653"
           style="fill:#ffffff;fill-opacity:1">
</g>
        <g
           id="g655"
           style="fill:#ffffff;fill-opacity:1">
</g>
        <g
           id="g657"
           style="fill:#ffffff;fill-opacity:1">
</g>
        <g
           id="g659"
           style="fill:#ffffff;fill-opacity:1">
</g>
        <g
           id="g661"
           style="fill:#ffffff;fill-opacity:1">
</g>
        <g
           id="g663"
           style="fill:#ffffff;fill-opacity:1">
</g>
        <g
           id="g665"
           style="fill:#ffffff;fill-opacity:1">
</g>
        <g
           id="g667"
           style="fill:#ffffff;fill-opacity:1">
</g>
        <g
           id="g669"
           style="fill:#ffffff;fill-opacity:1">
</g>
        <g
           id="g671"
           style="fill:#ffffff;fill-opacity:1">
</g>
        <g
           id="g673"
           style="fill:#ffffff;fill-opacity:1">
</g>
        <g
           id="g675"
           style="fill:#ffffff;fill-opacity:1">
</g>
        <g
           id="g677"
           style="fill:#ffffff;fill-opacity:1">
</g>
        <g
           id="g679"
           style="fill:#ffffff;fill-opacity:1">
</g>
        <g
           id="g681"
           style="fill:#ffffff;fill-opacity:1">
</g>
      </g>
    </g>
    <g
       id="g5284"
       transform="translate(71.018041)"
       style="fill:#12ccff;fill-opacity:1">
      <g
         style="fill:#12ccff;fill-opacity:1;stroke:#12ccff;stroke-opacity:1"
         id="g1458"
         transform="matrix(1.8986612,0.50874473,-0.50874473,1.8986612,85.478931,76.625458)">
        <path
           d="m -23.960837,14.175809 1.876373,-8.4436777 h 7.036398 l -1.40728,5.6290337 h 3.752745 l -8.443677,11.258321 1.40728,-8.443677 z"
           stroke="#000000"
           stroke-width="1.87637"
           stroke-linecap="round"
           stroke-linejoin="round"
           id="path1456"
           style="fill:#12ccff;fill-opacity:1;stroke:#12ccff;stroke-opacity:1" />
      </g>
      <g
         id="g1496"
         transform="matrix(0.26458333,0,0,0.26458333,9.8351652,53.636776)"
         style="fill:#12ccff;fill-opacity:1">
        <g
           id="g1464"
           style="fill:#ffffff;fill-opacity:1">
          <path
             d="m 50.026,221.666 v -77.064 c 0,-4.142 -3.357,-7.5 -7.5,-7.5 -4.143,0 -7.5,3.358 -7.5,7.5 v 84.564 c 0,4.142 3.357,7.5 7.5,7.5 h 56.377 56.379 56.373 c 4.143,0 7.5,-3.358 7.5,-7.5 v -84.564 c 0,-4.142 -3.358,-7.5 -7.5,-7.5 -4.143,0 -7.5,3.358 -7.5,7.5 v 77.064"
             id="path1460"
             style="fill:#ffffff;fill-opacity:1" />
          <path
             d="M 251.985,139.298 132.389,19.712 c -2.928,-2.929 -7.677,-2.928 -10.607,0 L 2.197,139.298 c -2.929,2.929 -2.929,7.678 0,10.606 2.93,2.929 7.678,2.929 10.607,0 L 127.086,35.622 241.379,149.905 c 1.464,1.464 3.384,2.196 5.303,2.196 1.919,0 3.839,-0.732 5.304,-2.197 2.928,-2.928 2.928,-7.677 -10e-4,-10.606 z"
             id="path1462"
             style="fill:#ffffff;fill-opacity:1" />
        </g>
        <g
           id="g1466"
           style="fill:#12ccff;fill-opacity:1">
</g>
        <g
           id="g1468"
           style="fill:#12ccff;fill-opacity:1">
</g>
        <g
           id="g1470"
           style="fill:#12ccff;fill-opacity:1">
</g>
        <g
           id="g1472"
           style="fill:#12ccff;fill-opacity:1">
</g>
        <g
           id="g1474"
           style="fill:#12ccff;fill-opacity:1">
</g>
        <g
           id="g1476"
           style="fill:#12ccff;fill-opacity:1">
</g>
        <g
           id="g1478"
           style="fill:#12ccff;fill-opacity:1">
</g>
        <g
           id="g1480"
           style="fill:#12ccff;fill-opacity:1">
</g>
        <g
           id="g1482"
           style="fill:#12ccff;fill-opacity:1">
</g>
        <g
           id="g1484"
           style="fill:#12ccff;fill-opacity:1">
</g>
        <g
           id="g1486"
           style="fill:#12ccff;fill-opacity:1">
</g>
        <g
           id="g1488"
           style="fill:#12ccff;fill-opacity:1">
</g>
        <g
           id="g1490"
           style="fill:#12ccff;fill-opacity:1">
</g>
        <g
           id="g1492"
           style="fill:#12ccff;fill-opacity:1">
</g>
        <g
           id="g1494"
           style="fill:#12ccff;fill-opacity:1">
</g>
      </g>
    </g>
    <g
       id="g5328"
       transform="translate(143.6678)">
      <g
         style="fill:#12ccff;fill-opacity:1;stroke:#12ccff;stroke-opacity:1"
         id="g5288"
         transform="matrix(1.8986612,0.50874473,-0.50874473,1.8986612,85.478931,76.625458)">
        <path
           d="m -23.960837,14.175809 1.876373,-8.4436777 h 7.036398 l -1.40728,5.6290337 h 3.752745 l -8.443677,11.258321 1.40728,-8.443677 z"
           stroke="#000000"
           stroke-width="1.87637"
           stroke-linecap="round"
           stroke-linejoin="round"
           id="path5286"
           style="fill:#12ccff;fill-opacity:1;stroke:#12ccff;stroke-opacity:1" />
      </g>
      <g
         id="g5326"
         transform="matrix(0.26458333,0,0,0.26458333,9.8351652,53.636776)">
        <g
           id="g5294">
          <path
             d="m 50.026,221.666 v -77.064 c 0,-4.142 -3.357,-7.5 -7.5,-7.5 -4.143,0 -7.5,3.358 -7.5,7.5 v 84.564 c 0,4.142 3.357,7.5 7.5,7.5 h 56.377 56.379 56.373 c 4.143,0 7.5,-3.358 7.5,-7.5 v -84.564 c 0,-4.142 -3.358,-7.5 -7.5,-7.5 -4.143,0 -7.5,3.358 -7.5,7.5 v 77.064"
             id="path5290" />
          <path
             d="M 251.985,139.298 132.389,19.712 c -2.928,-2.929 -7.677,-2.928 -10.607,0 L 2.197,139.298 c -2.929,2.929 -2.929,7.678 0,10.606 2.93,2.929 7.678,2.929 10.607,0 L 127.086,35.622 241.379,149.905 c 1.464,1.464 3.384,2.196 5.303,2.196 1.919,0 3.839,-0.732 5.304,-2.197 2.928,-2.928 2.928,-7.677 -10e-4,-10.606 z"
             id="path5292" />
        </g>
        <g
           id="g5296">
</g>
        <g
           id="g5298">
</g>
        <g
           id="g5300">
</g>
        <g
           id="g5302">
</g>
        <g
           id="g5304">
</g>
        <g
           id="g5306">
</g>
        <g
           id="g5308">
</g>
        <g
           id="g5310">
</g>
        <g
           id="g5312">
</g>
        <g
           id="g5314">
</g>
        <g
           id="g5316">
</g>
        <g
           id="g5318">
</g>
        <g
           id="g5320">
</g>
        <g
           id="g5322">
</g>
        <g
           id="g5324">
</g>
      </g>
    </g>
  </g>
</svg>
